<svg width="260" height="184" viewBox="0 0 260 184" fill="none" xmlns="http://www.w3.org/2000/svg">
<g filter="url(#filter0_d_3_807)">
<g clip-path="url(#clip0_3_807)">
<rect x="16.0352" y="16.8369" width="210.061" height="133.508" rx="9.79874" fill="#28A263"/>
<circle cx="200.374" cy="111.15" r="113.91" fill="#0C964E"/>
<circle cx="282.438" cy="145.445" r="113.91" fill="#28A263"/>
<path d="M31.0957 129.539C31.0957 128.873 31.2492 128.275 31.5562 127.746C31.8698 127.217 32.2912 126.805 32.8203 126.511C33.356 126.211 33.9406 126.061 34.5743 126.061C35.2994 126.061 35.9428 126.24 36.5046 126.6C37.0729 126.952 37.4845 127.455 37.7393 128.109H36.3968C36.2205 127.749 35.9755 127.481 35.6619 127.305C35.3484 127.129 34.9858 127.041 34.5743 127.041C34.1235 127.041 33.7218 127.142 33.369 127.344C33.0163 127.547 32.7386 127.837 32.5361 128.216C32.3401 128.595 32.2422 129.036 32.2422 129.539C32.2422 130.042 32.3401 130.483 32.5361 130.862C32.7386 131.241 33.0163 131.535 33.369 131.744C33.7218 131.946 34.1235 132.048 34.5743 132.048C34.9858 132.048 35.3484 131.959 35.6619 131.783C35.9755 131.607 36.2205 131.339 36.3968 130.98H37.7393C37.4845 131.633 37.0729 132.136 36.5046 132.489C35.9428 132.841 35.2994 133.018 34.5743 133.018C33.9341 133.018 33.3494 132.871 32.8203 132.577C32.2912 132.276 31.8698 131.861 31.5562 131.332C31.2492 130.803 31.0957 130.206 31.0957 129.539ZM44.1323 131.568H41.2809L40.791 132.959H39.6249L42.0648 126.139H43.3582L45.7981 132.959H44.6223L44.1323 131.568ZM43.8188 130.656L42.7115 127.491L41.5944 130.656H43.8188ZM55.0115 126.149V132.959H53.8945V128.295L51.8171 132.959H51.043L48.9559 128.295V132.959H47.8388V126.149H49.0441L51.435 131.489L53.8161 126.149H55.0115ZM58.5767 127.05V129.049H60.9284V129.961H58.5767V132.048H61.2223V132.959H57.4596V126.139H61.2223V127.05H58.5767ZM67.1154 132.959L65.5476 130.235H64.6951V132.959H63.5781V126.149H65.9298C66.4524 126.149 66.8933 126.24 67.2526 126.423C67.6184 126.606 67.8895 126.851 68.0659 127.158C68.2488 127.465 68.3403 127.808 68.3403 128.187C68.3403 128.631 68.2096 129.036 67.9483 129.402C67.6936 129.761 67.2983 130.006 66.7627 130.137L68.4481 132.959H67.1154ZM64.6951 129.343H65.9298C66.3479 129.343 66.6614 129.239 66.8705 129.03C67.086 128.821 67.1938 128.54 67.1938 128.187C67.1938 127.834 67.0893 127.56 66.8803 127.364C66.6712 127.161 66.3544 127.06 65.9298 127.06H64.6951V129.343ZM73.8554 133.028C73.2217 133.028 72.637 132.881 72.1014 132.587C71.5722 132.286 71.1509 131.871 70.8373 131.342C70.5303 130.806 70.3768 130.206 70.3768 129.539C70.3768 128.873 70.5303 128.275 70.8373 127.746C71.1509 127.217 71.5722 126.805 72.1014 126.511C72.637 126.211 73.2217 126.061 73.8554 126.061C74.4955 126.061 75.0802 126.211 75.6093 126.511C76.145 126.805 76.5663 127.217 76.8734 127.746C77.1804 128.275 77.3339 128.873 77.3339 129.539C77.3339 130.206 77.1804 130.806 76.8734 131.342C76.5663 131.871 76.145 132.286 75.6093 132.587C75.0802 132.881 74.4955 133.028 73.8554 133.028ZM73.8554 132.057C74.3061 132.057 74.7078 131.956 75.0606 131.754C75.4134 131.545 75.6877 131.251 75.8837 130.872C76.0862 130.486 76.1875 130.042 76.1875 129.539C76.1875 129.036 76.0862 128.595 75.8837 128.216C75.6877 127.837 75.4134 127.547 75.0606 127.344C74.7078 127.142 74.3061 127.041 73.8554 127.041C73.4046 127.041 73.0029 127.142 72.6501 127.344C72.2974 127.547 72.0197 127.837 71.8172 128.216C71.6212 128.595 71.5233 129.036 71.5233 129.539C71.5233 130.042 71.6212 130.486 71.8172 130.872C72.0197 131.251 72.2974 131.545 72.6501 131.754C73.0029 131.956 73.4046 132.057 73.8554 132.057ZM85.0081 132.959H83.891L80.5301 127.873V132.959H79.413V126.139H80.5301L83.891 131.215V126.139H85.0081V132.959ZM99.848 126.149L97.8294 132.959H96.5654L95.1348 127.805L93.616 132.959L92.3617 132.969L90.4314 126.149H91.617L93.028 131.695L94.5567 126.149H95.8109L97.2317 131.666L98.6525 126.149H99.848ZM102.866 126.149V132.959H101.749V126.149H102.866ZM106.43 132.057H108.732V132.959H105.313V126.149H106.43V132.057ZM111.764 132.057H114.066V132.959H110.646V126.149H111.764V132.057ZM117.097 126.149V132.959H115.98V126.149H117.097ZM123.65 131.568H120.798L120.308 132.959H119.142L121.582 126.139H122.875L125.315 132.959H124.139L123.65 131.568ZM123.336 130.656L122.229 127.491L121.112 130.656H123.336ZM134.529 126.149V132.959H133.412V128.295L131.334 132.959H130.56L128.473 128.295V132.959H127.356V126.149H128.561L130.952 131.489L133.333 126.149H134.529ZM139.221 133.028C138.763 133.028 138.352 132.949 137.986 132.792C137.62 132.629 137.333 132.4 137.124 132.106C136.915 131.813 136.81 131.47 136.81 131.078H138.006C138.032 131.372 138.146 131.613 138.349 131.803C138.558 131.992 138.848 132.087 139.221 132.087C139.606 132.087 139.907 131.995 140.122 131.813C140.338 131.623 140.446 131.381 140.446 131.087C140.446 130.859 140.377 130.673 140.24 130.529C140.109 130.385 139.943 130.274 139.74 130.196C139.544 130.117 139.27 130.032 138.917 129.941C138.473 129.823 138.11 129.706 137.829 129.588C137.555 129.464 137.32 129.275 137.124 129.02C136.928 128.765 136.83 128.425 136.83 128.001C136.83 127.609 136.928 127.266 137.124 126.972C137.32 126.678 137.594 126.453 137.947 126.296C138.3 126.139 138.708 126.061 139.172 126.061C139.831 126.061 140.37 126.227 140.788 126.56C141.213 126.887 141.448 127.338 141.494 127.913H140.259C140.24 127.664 140.122 127.452 139.907 127.276C139.691 127.099 139.407 127.011 139.054 127.011C138.734 127.011 138.473 127.093 138.27 127.256C138.068 127.419 137.966 127.655 137.966 127.962C137.966 128.171 138.029 128.344 138.153 128.481C138.283 128.612 138.447 128.716 138.643 128.794C138.839 128.873 139.106 128.958 139.446 129.049C139.897 129.173 140.263 129.297 140.544 129.422C140.831 129.546 141.073 129.738 141.269 130C141.471 130.255 141.572 130.597 141.572 131.029C141.572 131.375 141.478 131.701 141.288 132.008C141.105 132.316 140.834 132.564 140.475 132.753C140.122 132.936 139.704 133.028 139.221 133.028ZM146.977 133.028C146.343 133.028 145.758 132.881 145.223 132.587C144.693 132.286 144.272 131.871 143.959 131.342C143.652 130.806 143.498 130.206 143.498 129.539C143.498 128.873 143.652 128.275 143.959 127.746C144.272 127.217 144.693 126.805 145.223 126.511C145.758 126.211 146.343 126.061 146.977 126.061C147.617 126.061 148.201 126.211 148.731 126.511C149.266 126.805 149.688 127.217 149.995 127.746C150.302 128.275 150.455 128.873 150.455 129.539C150.455 130.206 150.302 130.806 149.995 131.342C149.688 131.871 149.266 132.286 148.731 132.587C148.201 132.881 147.617 133.028 146.977 133.028ZM146.977 132.057C147.427 132.057 147.829 131.956 148.182 131.754C148.535 131.545 148.809 131.251 149.005 130.872C149.207 130.486 149.309 130.042 149.309 129.539C149.309 129.036 149.207 128.595 149.005 128.216C148.809 127.837 148.535 127.547 148.182 127.344C147.829 127.142 147.427 127.041 146.977 127.041C146.526 127.041 146.124 127.142 145.771 127.344C145.419 127.547 145.141 127.837 144.938 128.216C144.742 128.595 144.644 129.036 144.644 129.539C144.644 130.042 144.742 130.486 144.938 130.872C145.141 131.251 145.419 131.545 145.771 131.754C146.124 131.956 146.526 132.057 146.977 132.057ZM158.129 132.959H157.012L153.651 127.873V132.959H152.534V126.139H153.651L157.012 131.215V126.139H158.129V132.959Z" fill="white"/>
<path d="M186.19 101.806C186.19 100.817 186.356 100.045 186.688 99.4908C187.025 98.9306 187.602 98.6506 188.42 98.6506C189.237 98.6506 189.811 98.9306 190.143 99.4908C190.48 100.045 190.649 100.817 190.649 101.806C190.649 102.806 190.48 103.589 190.143 104.155C189.811 104.715 189.237 104.995 188.42 104.995C187.602 104.995 187.025 104.715 186.688 104.155C186.356 103.589 186.19 102.806 186.19 101.806ZM189.688 101.806C189.688 101.343 189.657 100.951 189.594 100.631C189.537 100.311 189.417 100.051 189.234 99.8509C189.051 99.6451 188.78 99.5422 188.42 99.5422C188.059 99.5422 187.788 99.6451 187.605 99.8509C187.422 100.051 187.299 100.311 187.236 100.631C187.179 100.951 187.151 101.343 187.151 101.806C187.151 102.286 187.179 102.689 187.236 103.015C187.294 103.34 187.414 103.603 187.596 103.803C187.785 104.004 188.059 104.104 188.42 104.104C188.78 104.104 189.051 104.004 189.234 103.803C189.423 103.603 189.546 103.34 189.603 103.015C189.66 102.689 189.688 102.286 189.688 101.806ZM191.666 100.305C191.7 99.7737 191.903 99.3593 192.275 99.0621C192.652 98.7649 193.132 98.6163 193.715 98.6163C194.115 98.6163 194.461 98.6877 194.752 98.8306C195.044 98.9735 195.264 99.1678 195.413 99.4136C195.561 99.6594 195.636 99.9366 195.636 100.245C195.636 100.6 195.541 100.903 195.353 101.154C195.164 101.406 194.938 101.574 194.675 101.66V101.694C195.013 101.797 195.275 101.986 195.464 102.26C195.653 102.529 195.747 102.875 195.747 103.298C195.747 103.635 195.67 103.935 195.516 104.198C195.361 104.461 195.133 104.669 194.83 104.824C194.527 104.972 194.164 105.047 193.741 105.047C193.123 105.047 192.615 104.889 192.215 104.575C191.82 104.255 191.609 103.798 191.58 103.203H192.523C192.546 103.506 192.663 103.755 192.875 103.949C193.086 104.138 193.372 104.232 193.732 104.232C194.081 104.232 194.349 104.138 194.538 103.949C194.727 103.755 194.821 103.506 194.821 103.203C194.821 102.803 194.692 102.52 194.435 102.354C194.184 102.183 193.795 102.097 193.269 102.097H193.046V101.291H193.278C193.741 101.286 194.092 101.208 194.332 101.06C194.578 100.911 194.701 100.677 194.701 100.357C194.701 100.082 194.612 99.8652 194.435 99.7051C194.258 99.5394 194.007 99.4565 193.681 99.4565C193.361 99.4565 193.112 99.5394 192.935 99.7051C192.758 99.8652 192.652 100.065 192.618 100.305H191.666ZM200.075 96.9186L197.743 106.513H196.782L199.106 96.9186H200.075ZM201.718 103.683C202.267 103.209 202.698 102.82 203.013 102.517C203.333 102.209 203.599 101.889 203.81 101.557C204.022 101.226 204.127 100.894 204.127 100.563C204.127 100.22 204.044 99.9509 203.879 99.7566C203.719 99.5622 203.464 99.4651 203.116 99.4651C202.778 99.4651 202.515 99.5737 202.327 99.7909C202.144 100.002 202.047 100.288 202.035 100.648H201.092C201.109 99.9967 201.304 99.4994 201.675 99.1564C202.052 98.8077 202.53 98.6334 203.107 98.6334C203.73 98.6334 204.216 98.8049 204.565 99.1478C204.919 99.4908 205.096 99.9481 205.096 100.52C205.096 100.931 204.99 101.328 204.779 101.711C204.573 102.089 204.325 102.429 204.033 102.732C203.747 103.029 203.381 103.375 202.936 103.769L202.55 104.112H205.268V104.927H201.101V104.215L201.718 103.683ZM206.006 103.709V102.972L208.887 98.8392H210.07V102.86H210.868V103.709H210.07V105.012H209.11V103.709H206.006ZM209.153 99.8338L207.129 102.86H209.153V99.8338Z" fill="white"/>
<path d="M171.727 96.4349L170.439 99.8498H169.924L168.636 96.4349H169.111L170.184 99.3794L171.257 96.4349H171.727ZM174.235 99.0904H172.745L172.471 99.8498H172.001L173.235 96.4545H173.75L174.979 99.8498H174.509L174.235 99.0904ZM174.107 98.7278L173.49 97.0032L172.873 98.7278H174.107ZM175.963 99.4872H177.159V99.8498H175.518V96.4349H175.963V99.4872ZM178.078 96.4349V99.8498H177.632V96.4349H178.078ZM179.901 96.4349C180.274 96.4349 180.595 96.5051 180.866 96.6456C181.141 96.7828 181.35 96.9804 181.493 97.2384C181.64 97.4964 181.714 97.8002 181.714 98.1497C181.714 98.4992 181.64 98.8029 181.493 99.061C181.35 99.3157 181.141 99.5117 180.866 99.6489C180.595 99.7828 180.274 99.8498 179.901 99.8498H178.838V96.4349H179.901ZM179.901 99.4823C180.342 99.4823 180.679 99.3664 180.91 99.1345C181.142 98.8993 181.258 98.571 181.258 98.1497C181.258 97.7251 181.141 97.3936 180.906 97.1551C180.674 96.9167 180.339 96.7975 179.901 96.7975H179.284V99.4823H179.901ZM171.007 101.435V101.797H170.076V104.85H169.63V101.797H168.695V101.435H171.007ZM174.187 101.435V104.85H173.741V103.302H172.002V104.85H171.556V101.435H172.002V102.934H173.741V101.435H174.187ZM176.746 104.85L175.933 103.453H175.394V104.85H174.948V101.435H176.051C176.309 101.435 176.526 101.479 176.702 101.567C176.882 101.655 177.016 101.775 177.104 101.925C177.192 102.075 177.236 102.247 177.236 102.439C177.236 102.674 177.168 102.882 177.03 103.062C176.897 103.241 176.694 103.36 176.423 103.419L177.28 104.85H176.746ZM175.394 103.096H176.051C176.292 103.096 176.474 103.037 176.594 102.919C176.715 102.799 176.776 102.639 176.776 102.439C176.776 102.237 176.715 102.08 176.594 101.969C176.477 101.858 176.296 101.802 176.051 101.802H175.394V103.096ZM178.365 101.435V103.596C178.365 103.899 178.439 104.125 178.585 104.272C178.736 104.419 178.943 104.492 179.208 104.492C179.469 104.492 179.673 104.419 179.82 104.272C179.97 104.125 180.046 103.899 180.046 103.596V101.435H180.491V103.591C180.491 103.875 180.434 104.115 180.32 104.311C180.206 104.504 180.05 104.647 179.854 104.742C179.662 104.837 179.445 104.884 179.203 104.884C178.961 104.884 178.742 104.837 178.546 104.742C178.354 104.647 178.2 104.504 178.086 104.311C177.975 104.115 177.919 103.875 177.919 103.591V101.435H178.365Z" fill="white"/>
<path d="M191.327 34.7492C191.962 34.7492 192.516 34.8721 192.991 35.1179C193.471 35.3579 193.839 35.7066 194.097 36.1639C194.36 36.6154 194.491 37.1442 194.491 37.75C194.491 38.3559 194.36 38.8818 194.097 39.3276C193.839 39.7735 193.471 40.1164 192.991 40.3565C192.516 40.5909 191.962 40.708 191.327 40.708H189.381V34.7492H191.327ZM191.327 39.9107C192.025 39.9107 192.559 39.722 192.931 39.3448C193.302 38.9675 193.488 38.436 193.488 37.75C193.488 37.0584 193.302 36.5183 192.931 36.1296C192.559 35.7409 192.025 35.5465 191.327 35.5465H190.358V39.9107H191.327ZM199.79 38.2302C199.79 38.4074 199.778 38.5674 199.755 38.7103H196.146C196.174 39.0876 196.314 39.3905 196.566 39.6192C196.817 39.8478 197.126 39.9621 197.492 39.9621C198.018 39.9621 198.389 39.742 198.606 39.3019H199.661C199.518 39.7363 199.258 40.0936 198.881 40.3737C198.509 40.648 198.046 40.7852 197.492 40.7852C197.04 40.7852 196.634 40.6852 196.274 40.4851C195.92 40.2793 195.64 39.9935 195.434 39.6277C195.234 39.2562 195.134 38.8275 195.134 38.3416C195.134 37.8558 195.231 37.43 195.425 37.0641C195.625 36.6926 195.903 36.4068 196.257 36.2067C196.617 36.0067 197.029 35.9067 197.492 35.9067C197.938 35.9067 198.335 36.0038 198.684 36.1982C199.032 36.3925 199.304 36.6669 199.498 37.0213C199.692 37.3699 199.79 37.7729 199.79 38.2302ZM198.769 37.9215C198.764 37.5614 198.635 37.2728 198.383 37.0556C198.132 36.8384 197.82 36.7297 197.449 36.7297C197.112 36.7297 196.823 36.8384 196.583 37.0556C196.343 37.267 196.2 37.5557 196.154 37.9215H198.769ZM201.729 36.6869C201.895 36.4582 202.12 36.2725 202.406 36.1296C202.698 35.981 203.021 35.9067 203.375 35.9067C203.792 35.9067 204.17 36.0067 204.507 36.2067C204.844 36.4068 205.11 36.6926 205.304 37.0641C205.499 37.43 205.596 37.8501 205.596 38.3245C205.596 38.7989 205.499 39.2248 205.304 39.602C205.11 39.9735 204.841 40.2651 204.498 40.4765C204.161 40.6823 203.787 40.7852 203.375 40.7852C203.009 40.7852 202.683 40.7138 202.398 40.5709C202.118 40.428 201.895 40.245 201.729 40.0221V40.708H200.751V34.3634H201.729V36.6869ZM204.601 38.3245C204.601 37.9987 204.533 37.7186 204.395 37.4843C204.264 37.2442 204.087 37.0641 203.864 36.9441C203.647 36.8183 203.412 36.7555 203.161 36.7555C202.915 36.7555 202.681 36.8183 202.458 36.9441C202.24 37.0698 202.063 37.2528 201.926 37.4928C201.795 37.7329 201.729 38.0158 201.729 38.3416C201.729 38.6674 201.795 38.9532 201.926 39.199C202.063 39.4391 202.24 39.622 202.458 39.7478C202.681 39.8735 202.915 39.9364 203.161 39.9364C203.412 39.9364 203.647 39.8735 203.864 39.7478C204.087 39.6163 204.264 39.4277 204.395 39.1819C204.533 38.9361 204.601 38.6503 204.601 38.3245ZM207.06 35.3579C206.882 35.3579 206.734 35.2979 206.614 35.1779C206.494 35.0578 206.434 34.9092 206.434 34.732C206.434 34.5548 206.494 34.4062 206.614 34.2862C206.734 34.1662 206.882 34.1061 207.06 34.1061C207.231 34.1061 207.377 34.1662 207.497 34.2862C207.617 34.4062 207.677 34.5548 207.677 34.732C207.677 34.9092 207.617 35.0578 207.497 35.1779C207.377 35.2979 207.231 35.3579 207.06 35.3579ZM207.54 35.9838V40.708H206.562V35.9838H207.54ZM209.963 36.7812V39.3962C209.963 39.5734 210.003 39.702 210.083 39.7821C210.169 39.8564 210.312 39.8935 210.512 39.8935H211.112V40.708H210.341C209.9 40.708 209.563 40.6052 209.329 40.3994C209.094 40.1936 208.977 39.8592 208.977 39.3962V36.7812H208.42V35.9838H208.977V34.8092H209.963V35.9838H211.112V36.7812H209.963Z" fill="white"/>
<circle cx="190.575" cy="127.072" r="8.5739" fill="#E33A24"/>
<circle cx="202.824" cy="127.073" r="8.5739" fill="#F8CB2E" fill-opacity="0.8"/>
<path d="M35.0617 98.5337C34.9736 98.5876 34.8854 98.6342 34.7972 98.6734C34.7139 98.7077 34.6257 98.7322 34.5326 98.7469C34.7237 98.7762 34.9001 98.8448 35.0617 98.9526L36.2302 99.6361L35.804 100.371L34.6355 99.6875C34.5473 99.6336 34.464 99.5773 34.3856 99.5185C34.3121 99.4597 34.2485 99.396 34.1946 99.3274C34.2583 99.4891 34.2901 99.6753 34.2901 99.886V101.238H33.4229V99.8933C33.4229 99.7953 33.4278 99.6998 33.4376 99.6067C33.4523 99.5136 33.4744 99.4254 33.5037 99.3421C33.4499 99.4107 33.3862 99.472 33.3127 99.5259C33.2392 99.5797 33.1608 99.6336 33.0775 99.6875L31.9164 100.364L31.4828 99.6287L32.6513 98.9526C32.8374 98.8448 33.0138 98.7762 33.1804 98.7469C33.0089 98.7175 32.8325 98.6464 32.6513 98.5337L31.4828 97.8503L31.909 97.1154L33.0775 97.8062C33.1657 97.8601 33.2465 97.9164 33.32 97.9752C33.3935 98.0291 33.4597 98.0903 33.5184 98.1589C33.4548 97.9972 33.4229 97.8135 33.4229 97.6077V96.2482H34.2901V97.593C34.2901 97.6959 34.2827 97.7939 34.2681 97.887C34.2583 97.9801 34.2362 98.0683 34.2019 98.1516C34.2607 98.083 34.3268 98.0217 34.4003 97.9679C34.4738 97.914 34.5522 97.8601 34.6355 97.8062L35.7967 97.1301L36.2302 97.865L35.0617 98.5337ZM41.5995 98.5337C41.5114 98.5876 41.4232 98.6342 41.335 98.6734C41.2517 98.7077 41.1635 98.7322 41.0704 98.7469C41.2615 98.7762 41.4379 98.8448 41.5995 98.9526L42.768 99.6361L42.3418 100.371L41.1733 99.6875C41.0851 99.6336 41.0018 99.5773 40.9234 99.5185C40.8499 99.4597 40.7862 99.396 40.7324 99.3274C40.796 99.4891 40.8279 99.6753 40.8279 99.886V101.238H39.9607V99.8933C39.9607 99.7953 39.9656 99.6998 39.9754 99.6067C39.9901 99.5136 40.0121 99.4254 40.0415 99.3421C39.9876 99.4107 39.924 99.472 39.8505 99.5259C39.777 99.5797 39.6986 99.6336 39.6153 99.6875L38.4541 100.364L38.0205 99.6287L39.189 98.9526C39.3752 98.8448 39.5516 98.7762 39.7182 98.7469C39.5467 98.7175 39.3703 98.6464 39.189 98.5337L38.0205 97.8503L38.4468 97.1154L39.6153 97.8062C39.7035 97.8601 39.7843 97.9164 39.8578 97.9752C39.9313 98.0291 39.9974 98.0903 40.0562 98.1589C39.9925 97.9972 39.9607 97.8135 39.9607 97.6077V96.2482H40.8279V97.593C40.8279 97.6959 40.8205 97.7939 40.8058 97.887C40.796 97.9801 40.774 98.0683 40.7397 98.1516C40.7985 98.083 40.8646 98.0217 40.9381 97.9679C41.0116 97.914 41.09 97.8601 41.1733 97.8062L42.3344 97.1301L42.768 97.865L41.5995 98.5337ZM48.1373 98.5337C48.0491 98.5876 47.961 98.6342 47.8728 98.6734C47.7895 98.7077 47.7013 98.7322 47.6082 98.7469C47.7993 98.7762 47.9757 98.8448 48.1373 98.9526L49.3058 99.6361L48.8796 100.371L47.7111 99.6875C47.6229 99.6336 47.5396 99.5773 47.4612 99.5185C47.3877 99.4597 47.324 99.396 47.2701 99.3274C47.3338 99.4891 47.3657 99.6753 47.3657 99.886V101.238H46.4985V99.8933C46.4985 99.7953 46.5034 99.6998 46.5132 99.6067C46.5279 99.5136 46.5499 99.4254 46.5793 99.3421C46.5254 99.4107 46.4617 99.472 46.3883 99.5259C46.3148 99.5797 46.2364 99.6336 46.1531 99.6875L44.9919 100.364L44.5583 99.6287L45.7268 98.9526C45.913 98.8448 46.0894 98.7762 46.256 98.7469C46.0845 98.7175 45.9081 98.6464 45.7268 98.5337L44.5583 97.8503L44.9846 97.1154L46.1531 97.8062C46.2413 97.8601 46.3221 97.9164 46.3956 97.9752C46.4691 98.0291 46.5352 98.0903 46.594 98.1589C46.5303 97.9972 46.4985 97.8135 46.4985 97.6077V96.2482H47.3657V97.593C47.3657 97.6959 47.3583 97.7939 47.3436 97.887C47.3338 97.9801 47.3118 98.0683 47.2775 98.1516C47.3363 98.083 47.4024 98.0217 47.4759 97.9679C47.5494 97.914 47.6278 97.8601 47.7111 97.8062L48.8722 97.1301L49.3058 97.865L48.1373 98.5337ZM54.6751 98.5337C54.5869 98.5876 54.4987 98.6342 54.4106 98.6734C54.3273 98.7077 54.2391 98.7322 54.146 98.7469C54.3371 98.7762 54.5134 98.8448 54.6751 98.9526L55.8436 99.6361L55.4174 100.371L54.2489 99.6875C54.1607 99.6336 54.0774 99.5773 53.999 99.5185C53.9255 99.4597 53.8618 99.396 53.8079 99.3274C53.8716 99.4891 53.9035 99.6753 53.9035 99.886V101.238H53.0363V99.8933C53.0363 99.7953 53.0412 99.6998 53.051 99.6067C53.0657 99.5136 53.0877 99.4254 53.1171 99.3421C53.0632 99.4107 52.9995 99.472 52.926 99.5259C52.8526 99.5797 52.7742 99.6336 52.6909 99.6875L51.5297 100.364L51.0961 99.6287L52.2646 98.9526C52.4508 98.8448 52.6272 98.7762 52.7938 98.7469C52.6223 98.7175 52.4459 98.6464 52.2646 98.5337L51.0961 97.8503L51.5224 97.1154L52.6909 97.8062C52.7791 97.8601 52.8599 97.9164 52.9334 97.9752C53.0069 98.0291 53.073 98.0903 53.1318 98.1589C53.0681 97.9972 53.0363 97.8135 53.0363 97.6077V96.2482H53.9035V97.593C53.9035 97.6959 53.8961 97.7939 53.8814 97.887C53.8716 97.9801 53.8496 98.0683 53.8153 98.1516C53.8741 98.083 53.9402 98.0217 54.0137 97.9679C54.0872 97.914 54.1656 97.8601 54.2489 97.8062L55.41 97.1301L55.8436 97.865L54.6751 98.5337ZM65.0809 98.5337C64.9927 98.5876 64.9045 98.6342 64.8164 98.6734C64.7331 98.7077 64.6449 98.7322 64.5518 98.7469C64.7429 98.7762 64.9192 98.8448 65.0809 98.9526L66.2494 99.6361L65.8232 100.371L64.6547 99.6875C64.5665 99.6336 64.4832 99.5773 64.4048 99.5185C64.3313 99.4597 64.2676 99.396 64.2137 99.3274C64.2774 99.4891 64.3093 99.6753 64.3093 99.886V101.238H63.4421V99.8933C63.4421 99.7953 63.447 99.6998 63.4568 99.6067C63.4715 99.5136 63.4935 99.4254 63.5229 99.3421C63.469 99.4107 63.4053 99.472 63.3318 99.5259C63.2584 99.5797 63.18 99.6336 63.0967 99.6875L61.9355 100.364L61.5019 99.6287L62.6704 98.9526C62.8566 98.8448 63.033 98.7762 63.1996 98.7469C63.0281 98.7175 62.8517 98.6464 62.6704 98.5337L61.5019 97.8503L61.9282 97.1154L63.0967 97.8062C63.1849 97.8601 63.2657 97.9164 63.3392 97.9752C63.4127 98.0291 63.4788 98.0903 63.5376 98.1589C63.4739 97.9972 63.4421 97.8135 63.4421 97.6077V96.2482H64.3093V97.593C64.3093 97.6959 64.3019 97.7939 64.2872 97.887C64.2774 97.9801 64.2554 98.0683 64.2211 98.1516C64.2799 98.083 64.346 98.0217 64.4195 97.9679C64.493 97.914 64.5714 97.8601 64.6547 97.8062L65.8158 97.1301L66.2494 97.865L65.0809 98.5337ZM71.6187 98.5337C71.5305 98.5876 71.4423 98.6342 71.3541 98.6734C71.2709 98.7077 71.1827 98.7322 71.0896 98.7469C71.2807 98.7762 71.457 98.8448 71.6187 98.9526L72.7872 99.6361L72.361 100.371L71.1925 99.6875C71.1043 99.6336 71.021 99.5773 70.9426 99.5185C70.8691 99.4597 70.8054 99.396 70.7515 99.3274C70.8152 99.4891 70.8471 99.6753 70.8471 99.886V101.238H69.9799V99.8933C69.9799 99.7953 69.9848 99.6998 69.9946 99.6067C70.0093 99.5136 70.0313 99.4254 70.0607 99.3421C70.0068 99.4107 69.9431 99.472 69.8696 99.5259C69.7961 99.5797 69.7178 99.6336 69.6345 99.6875L68.4733 100.364L68.0397 99.6287L69.2082 98.9526C69.3944 98.8448 69.5708 98.7762 69.7374 98.7469C69.5659 98.7175 69.3895 98.6464 69.2082 98.5337L68.0397 97.8503L68.466 97.1154L69.6345 97.8062C69.7227 97.8601 69.8035 97.9164 69.877 97.9752C69.9505 98.0291 70.0166 98.0903 70.0754 98.1589C70.0117 97.9972 69.9799 97.8135 69.9799 97.6077V96.2482H70.8471V97.593C70.8471 97.6959 70.8397 97.7939 70.825 97.887C70.8152 97.9801 70.7932 98.0683 70.7589 98.1516C70.8177 98.083 70.8838 98.0217 70.9573 97.9679C71.0308 97.914 71.1092 97.8601 71.1925 97.8062L72.3536 97.1301L72.7872 97.865L71.6187 98.5337ZM78.1565 98.5337C78.0683 98.5876 77.9801 98.6342 77.8919 98.6734C77.8087 98.7077 77.7205 98.7322 77.6274 98.7469C77.8184 98.7762 77.9948 98.8448 78.1565 98.9526L79.325 99.6361L78.8988 100.371L77.7303 99.6875C77.6421 99.6336 77.5588 99.5773 77.4804 99.5185C77.4069 99.4597 77.3432 99.396 77.2893 99.3274C77.353 99.4891 77.3849 99.6753 77.3849 99.886V101.238H76.5177V99.8933C76.5177 99.7953 76.5226 99.6998 76.5324 99.6067C76.5471 99.5136 76.5691 99.4254 76.5985 99.3421C76.5446 99.4107 76.4809 99.472 76.4074 99.5259C76.3339 99.5797 76.2556 99.6336 76.1723 99.6875L75.0111 100.364L74.5775 99.6287L75.746 98.9526C75.9322 98.8448 76.1086 98.7762 76.2751 98.7469C76.1037 98.7175 75.9273 98.6464 75.746 98.5337L74.5775 97.8503L75.0038 97.1154L76.1723 97.8062C76.2604 97.8601 76.3413 97.9164 76.4148 97.9752C76.4883 98.0291 76.5544 98.0903 76.6132 98.1589C76.5495 97.9972 76.5177 97.8135 76.5177 97.6077V96.2482H77.3849V97.593C77.3849 97.6959 77.3775 97.7939 77.3628 97.887C77.353 97.9801 77.331 98.0683 77.2967 98.1516C77.3555 98.083 77.4216 98.0217 77.4951 97.9679C77.5686 97.914 77.647 97.8601 77.7303 97.8062L78.8914 97.1301L79.325 97.865L78.1565 98.5337ZM84.6943 98.5337C84.6061 98.5876 84.5179 98.6342 84.4297 98.6734C84.3464 98.7077 84.2583 98.7322 84.1652 98.7469C84.3562 98.7762 84.5326 98.8448 84.6943 98.9526L85.8628 99.6361L85.4365 100.371L84.268 99.6875C84.1799 99.6336 84.0966 99.5773 84.0182 99.5185C83.9447 99.4597 83.881 99.396 83.8271 99.3274C83.8908 99.4891 83.9226 99.6753 83.9226 99.886V101.238H83.0555V99.8933C83.0555 99.7953 83.0604 99.6998 83.0702 99.6067C83.0849 99.5136 83.1069 99.4254 83.1363 99.3421C83.0824 99.4107 83.0187 99.472 82.9452 99.5259C82.8717 99.5797 82.7933 99.6336 82.71 99.6875L81.5489 100.364L81.1153 99.6287L82.2838 98.9526C82.47 98.8448 82.6464 98.7762 82.8129 98.7469C82.6415 98.7175 82.4651 98.6464 82.2838 98.5337L81.1153 97.8503L81.5415 97.1154L82.71 97.8062C82.7982 97.8601 82.8791 97.9164 82.9526 97.9752C83.0261 98.0291 83.0922 98.0903 83.151 98.1589C83.0873 97.9972 83.0555 97.8135 83.0555 97.6077V96.2482H83.9226V97.593C83.9226 97.6959 83.9153 97.7939 83.9006 97.887C83.8908 97.9801 83.8688 98.0683 83.8345 98.1516C83.8932 98.083 83.9594 98.0217 84.0329 97.9679C84.1064 97.914 84.1848 97.8601 84.268 97.8062L85.4292 97.1301L85.8628 97.865L84.6943 98.5337ZM95.1001 98.5337C95.0119 98.5876 94.9237 98.6342 94.8355 98.6734C94.7522 98.7077 94.6641 98.7322 94.571 98.7469C94.762 98.7762 94.9384 98.8448 95.1001 98.9526L96.2686 99.6361L95.8424 100.371L94.6739 99.6875C94.5857 99.6336 94.5024 99.5773 94.424 99.5185C94.3505 99.4597 94.2868 99.396 94.2329 99.3274C94.2966 99.4891 94.3285 99.6753 94.3285 99.886V101.238H93.4613V99.8933C93.4613 99.7953 93.4662 99.6998 93.476 99.6067C93.4907 99.5136 93.5127 99.4254 93.5421 99.3421C93.4882 99.4107 93.4245 99.472 93.351 99.5259C93.2775 99.5797 93.1991 99.6336 93.1159 99.6875L91.9547 100.364L91.5211 99.6287L92.6896 98.9526C92.8758 98.8448 93.0522 98.7762 93.2187 98.7469C93.0473 98.7175 92.8709 98.6464 92.6896 98.5337L91.5211 97.8503L91.9474 97.1154L93.1159 97.8062C93.204 97.8601 93.2849 97.9164 93.3584 97.9752C93.4319 98.0291 93.498 98.0903 93.5568 98.1589C93.4931 97.9972 93.4613 97.8135 93.4613 97.6077V96.2482H94.3285V97.593C94.3285 97.6959 94.3211 97.7939 94.3064 97.887C94.2966 97.9801 94.2746 98.0683 94.2403 98.1516C94.2991 98.083 94.3652 98.0217 94.4387 97.9679C94.5122 97.914 94.5906 97.8601 94.6739 97.8062L95.835 97.1301L96.2686 97.865L95.1001 98.5337ZM101.638 98.5337C101.55 98.5876 101.462 98.6342 101.373 98.6734C101.29 98.7077 101.202 98.7322 101.109 98.7469C101.3 98.7762 101.476 98.8448 101.638 98.9526L102.806 99.6361L102.38 100.371L101.212 99.6875C101.123 99.6336 101.04 99.5773 100.962 99.5185C100.888 99.4597 100.825 99.396 100.771 99.3274C100.834 99.4891 100.866 99.6753 100.866 99.886V101.238H99.9991V99.8933C99.9991 99.7953 100.004 99.6998 100.014 99.6067C100.028 99.5136 100.05 99.4254 100.08 99.3421C100.026 99.4107 99.9623 99.472 99.8888 99.5259C99.8153 99.5797 99.7369 99.6336 99.6536 99.6875L98.4925 100.364L98.0589 99.6287L99.2274 98.9526C99.4136 98.8448 99.59 98.7762 99.7565 98.7469C99.5851 98.7175 99.4087 98.6464 99.2274 98.5337L98.0589 97.8503L98.4851 97.1154L99.6536 97.8062C99.7418 97.8601 99.8227 97.9164 99.8962 97.9752C99.9697 98.0291 100.036 98.0903 100.095 98.1589C100.031 97.9972 99.9991 97.8135 99.9991 97.6077V96.2482H100.866V97.593C100.866 97.6959 100.859 97.7939 100.844 97.887C100.834 97.9801 100.812 98.0683 100.778 98.1516C100.837 98.083 100.903 98.0217 100.976 97.9679C101.05 97.914 101.128 97.8601 101.212 97.8062L102.373 97.1301L102.806 97.865L101.638 98.5337ZM108.176 98.5337C108.087 98.5876 107.999 98.6342 107.911 98.6734C107.828 98.7077 107.74 98.7322 107.647 98.7469C107.838 98.7762 108.014 98.8448 108.176 98.9526L109.344 99.6361L108.918 100.371L107.749 99.6875C107.661 99.6336 107.578 99.5773 107.5 99.5185C107.426 99.4597 107.362 99.396 107.308 99.3274C107.372 99.4891 107.404 99.6753 107.404 99.886V101.238H106.537V99.8933C106.537 99.7953 106.542 99.6998 106.552 99.6067C106.566 99.5136 106.588 99.4254 106.618 99.3421C106.564 99.4107 106.5 99.472 106.427 99.5259C106.353 99.5797 106.275 99.6336 106.191 99.6875L105.03 100.364L104.597 99.6287L105.765 98.9526C105.951 98.8448 106.128 98.7762 106.294 98.7469C106.123 98.7175 105.946 98.6464 105.765 98.5337L104.597 97.8503L105.023 97.1154L106.191 97.8062C106.28 97.8601 106.36 97.9164 106.434 97.9752C106.507 98.0291 106.574 98.0903 106.632 98.1589C106.569 97.9972 106.537 97.8135 106.537 97.6077V96.2482H107.404V97.593C107.404 97.6959 107.397 97.7939 107.382 97.887C107.372 97.9801 107.35 98.0683 107.316 98.1516C107.375 98.083 107.441 98.0217 107.514 97.9679C107.588 97.914 107.666 97.8601 107.749 97.8062L108.911 97.1301L109.344 97.865L108.176 98.5337ZM114.713 98.5337C114.625 98.5876 114.537 98.6342 114.449 98.6734C114.366 98.7077 114.277 98.7322 114.184 98.7469C114.375 98.7762 114.552 98.8448 114.713 98.9526L115.882 99.6361L115.456 100.371L114.287 99.6875C114.199 99.6336 114.116 99.5773 114.037 99.5185C113.964 99.4597 113.9 99.396 113.846 99.3274C113.91 99.4891 113.942 99.6753 113.942 99.886V101.238H113.075V99.8933C113.075 99.7953 113.08 99.6998 113.089 99.6067C113.104 99.5136 113.126 99.4254 113.155 99.3421C113.102 99.4107 113.038 99.472 112.964 99.5259C112.891 99.5797 112.813 99.6336 112.729 99.6875L111.568 100.364L111.134 99.6287L112.303 98.9526C112.489 98.8448 112.666 98.7762 112.832 98.7469C112.661 98.7175 112.484 98.6464 112.303 98.5337L111.134 97.8503L111.561 97.1154L112.729 97.8062C112.817 97.8601 112.898 97.9164 112.972 97.9752C113.045 98.0291 113.111 98.0903 113.17 98.1589C113.106 97.9972 113.075 97.8135 113.075 97.6077V96.2482H113.942V97.593C113.942 97.6959 113.934 97.7939 113.92 97.887C113.91 97.9801 113.888 98.0683 113.854 98.1516C113.912 98.083 113.979 98.0217 114.052 97.9679C114.126 97.914 114.204 97.8601 114.287 97.8062L115.448 97.1301L115.882 97.865L114.713 98.5337ZM128.948 102.076C128.948 103.002 128.848 103.808 128.647 104.494C128.451 105.175 128.176 105.738 127.824 106.184C127.476 106.63 127.062 106.963 126.582 107.184C126.106 107.399 125.592 107.507 125.038 107.507C124.485 107.507 123.97 107.399 123.495 107.184C123.025 106.963 122.616 106.63 122.268 106.184C121.92 105.738 121.648 105.175 121.452 104.494C121.256 103.808 121.158 103.002 121.158 102.076C121.158 101.145 121.256 100.339 121.452 99.6581C121.648 98.9771 121.92 98.4137 122.268 97.9679C122.616 97.522 123.025 97.1913 123.495 96.9757C123.97 96.7553 124.485 96.645 125.038 96.645C125.592 96.645 126.106 96.7553 126.582 96.9757C127.062 97.1913 127.476 97.522 127.824 97.9679C128.176 98.4137 128.451 98.9771 128.647 99.6581C128.848 100.339 128.948 101.145 128.948 102.076ZM127.074 102.076C127.074 101.307 127.018 100.67 126.905 100.165C126.792 99.6606 126.641 99.2588 126.449 98.96C126.263 98.6611 126.048 98.4529 125.803 98.3353C125.558 98.2128 125.303 98.1516 125.038 98.1516C124.779 98.1516 124.526 98.2128 124.281 98.3353C124.041 98.4529 123.828 98.6611 123.642 98.96C123.456 99.2588 123.307 99.6606 123.194 100.165C123.086 100.67 123.032 101.307 123.032 102.076C123.032 102.845 123.086 103.482 123.194 103.987C123.307 104.491 123.456 104.893 123.642 105.192C123.828 105.491 124.041 105.702 124.281 105.824C124.526 105.942 124.779 106 125.038 106C125.303 106 125.558 105.942 125.803 105.824C126.048 105.702 126.263 105.491 126.449 105.192C126.641 104.893 126.792 104.491 126.905 103.987C127.018 103.482 127.074 102.845 127.074 102.076ZM130.404 99.7243C130.478 99.2147 130.62 98.7689 130.831 98.3867C131.041 97.9997 131.303 97.6788 131.617 97.424C131.935 97.1644 132.298 96.9708 132.705 96.8434C133.116 96.7112 133.557 96.645 134.027 96.645C134.517 96.645 134.958 96.7161 135.35 96.8581C135.747 96.9953 136.085 97.1889 136.364 97.4387C136.644 97.6837 136.857 97.9728 137.004 98.3059C137.156 98.6391 137.232 98.9992 137.232 99.3862C137.232 99.7243 137.192 100.023 137.114 100.283C137.041 100.538 136.933 100.76 136.791 100.952C136.649 101.143 136.472 101.304 136.262 101.437C136.051 101.569 135.813 101.679 135.549 101.767C136.186 101.968 136.661 102.274 136.974 102.686C137.288 103.097 137.445 103.614 137.445 104.237C137.445 104.766 137.347 105.234 137.151 105.64C136.955 106.047 136.69 106.39 136.357 106.669C136.024 106.944 135.637 107.152 135.196 107.294C134.76 107.436 134.297 107.507 133.807 107.507C133.273 107.507 132.808 107.446 132.411 107.323C132.014 107.201 131.668 107.019 131.374 106.779C131.081 106.539 130.831 106.245 130.625 105.897C130.419 105.55 130.243 105.148 130.096 104.692L130.897 104.362C131.107 104.273 131.303 104.251 131.485 104.295C131.671 104.335 131.806 104.433 131.889 104.589C131.977 104.761 132.073 104.93 132.176 105.096C132.283 105.263 132.411 105.412 132.558 105.545C132.705 105.672 132.876 105.777 133.072 105.861C133.273 105.939 133.511 105.978 133.785 105.978C134.094 105.978 134.363 105.929 134.593 105.831C134.824 105.728 135.015 105.596 135.167 105.434C135.323 105.273 135.439 105.094 135.512 104.898C135.59 104.697 135.63 104.496 135.63 104.295C135.63 104.041 135.603 103.81 135.549 103.605C135.495 103.394 135.382 103.215 135.211 103.068C135.039 102.921 134.792 102.806 134.468 102.723C134.15 102.639 133.721 102.598 133.182 102.598V101.304C133.628 101.299 133.998 101.258 134.292 101.179C134.586 101.101 134.819 100.993 134.99 100.856C135.167 100.714 135.289 100.545 135.358 100.349C135.426 100.153 135.461 99.9374 135.461 99.7022C135.461 99.2025 135.321 98.8228 135.042 98.5631C134.762 98.3035 134.39 98.1736 133.925 98.1736C133.709 98.1736 133.511 98.2055 133.329 98.2692C133.148 98.328 132.984 98.4137 132.837 98.5264C132.695 98.6342 132.575 98.7615 132.477 98.9085C132.379 99.0555 132.305 99.2172 132.256 99.3936C132.173 99.6189 132.063 99.7684 131.926 99.8419C131.793 99.9154 131.605 99.9325 131.36 99.8933L130.404 99.7243ZM145.64 105.699C145.836 105.699 145.99 105.755 146.103 105.868C146.221 105.976 146.28 106.12 146.28 106.302V107.389H138.989V106.787C138.989 106.664 139.014 106.537 139.063 106.405C139.117 106.267 139.2 106.145 139.313 106.037L142.539 102.804C142.808 102.529 143.048 102.267 143.259 102.017C143.475 101.767 143.653 101.52 143.796 101.275C143.938 101.03 144.045 100.783 144.119 100.533C144.197 100.278 144.236 100.011 144.236 99.7316C144.236 99.4769 144.2 99.2539 144.126 99.0629C144.053 98.8669 143.947 98.7028 143.81 98.5705C143.678 98.4382 143.516 98.3402 143.325 98.2765C143.139 98.2079 142.928 98.1736 142.693 98.1736C142.478 98.1736 142.277 98.2055 142.091 98.2692C141.909 98.328 141.748 98.4137 141.606 98.5264C141.463 98.6342 141.343 98.7615 141.245 98.9085C141.147 99.0555 141.074 99.2172 141.025 99.3936C140.942 99.6189 140.834 99.7684 140.702 99.8419C140.569 99.9154 140.378 99.9325 140.128 99.8933L139.173 99.7243C139.246 99.2147 139.389 98.7689 139.599 98.3867C139.81 97.9997 140.072 97.6788 140.386 97.424C140.704 97.1644 141.067 96.9708 141.473 96.8434C141.885 96.7112 142.326 96.645 142.796 96.645C143.286 96.645 143.734 96.7185 144.141 96.8655C144.548 97.0076 144.895 97.2109 145.185 97.4755C145.474 97.74 145.699 98.0585 145.861 98.4308C146.022 98.8032 146.103 99.2172 146.103 99.6728C146.103 100.065 146.044 100.427 145.927 100.76C145.814 101.094 145.66 101.412 145.464 101.716C145.273 102.02 145.047 102.314 144.788 102.598C144.528 102.882 144.256 103.171 143.972 103.465L141.576 105.912C141.806 105.844 142.034 105.792 142.26 105.758C142.49 105.719 142.708 105.699 142.914 105.699H145.64ZM149.676 99.9521C149.676 100.545 149.828 100.998 150.132 101.312C150.44 101.62 150.876 101.775 151.44 101.775C151.734 101.775 151.996 101.728 152.226 101.635C152.456 101.542 152.65 101.415 152.807 101.253C152.963 101.091 153.081 100.9 153.159 100.68C153.243 100.459 153.284 100.222 153.284 99.9668C153.284 99.6777 153.24 99.4205 153.152 99.1951C153.064 98.9649 152.939 98.7713 152.777 98.6146C152.616 98.4578 152.422 98.3378 152.197 98.2545C151.976 98.1712 151.734 98.1295 151.469 98.1295C151.195 98.1295 150.947 98.1761 150.727 98.2692C150.506 98.3574 150.318 98.4823 150.161 98.644C150.004 98.8056 149.884 98.9992 149.801 99.2245C149.718 99.445 149.676 99.6875 149.676 99.9521ZM152.086 103.267C152.17 103.164 152.248 103.063 152.322 102.965C152.395 102.867 152.466 102.769 152.535 102.671C152.29 102.828 152.02 102.948 151.726 103.031C151.432 103.11 151.124 103.149 150.8 103.149C150.433 103.149 150.073 103.085 149.72 102.958C149.367 102.83 149.054 102.639 148.779 102.385C148.505 102.125 148.282 101.807 148.111 101.429C147.944 101.047 147.861 100.601 147.861 100.092C147.861 99.6165 147.949 99.1706 148.125 98.7542C148.302 98.3378 148.549 97.9728 148.868 97.6592C149.186 97.3456 149.568 97.0982 150.014 96.9169C150.46 96.7357 150.952 96.645 151.491 96.645C152.035 96.645 152.522 96.7308 152.954 96.9022C153.39 97.0737 153.76 97.3138 154.063 97.6224C154.372 97.9311 154.607 98.301 154.769 98.7322C154.935 99.1633 155.019 99.6361 155.019 100.151C155.019 100.479 154.989 100.79 154.93 101.084C154.877 101.378 154.798 101.662 154.695 101.936C154.592 102.206 154.468 102.47 154.321 102.73C154.174 102.99 154.009 103.247 153.828 103.502L151.396 106.97C151.312 107.088 151.187 107.188 151.021 107.272C150.854 107.35 150.666 107.389 150.455 107.389H148.787L152.086 103.267Z" fill="#FDFDFD"/>
</g>
</g>
<defs>
<filter id="filter0_d_3_807" x="1.90735e-06" y="9.53674e-07" width="259.77" height="183.217" filterUnits="userSpaceOnUse" color-interpolation-filters="sRGB">
<feFlood flood-opacity="0" result="BackgroundImageFix"/>
<feColorMatrix in="SourceAlpha" type="matrix" values="0 0 0 0 0 0 0 0 0 0 0 0 0 0 0 0 0 0 127 0" result="hardAlpha"/>
<feOffset dx="8.81934" dy="8.01758"/>
<feGaussianBlur stdDeviation="12.4272"/>
<feComposite in2="hardAlpha" operator="out"/>
<feColorMatrix type="matrix" values="0 0 0 0 0.156863 0 0 0 0 0.635294 0 0 0 0 0.388235 0 0 0 0.16 0"/>
<feBlend mode="normal" in2="BackgroundImageFix" result="effect1_dropShadow_3_807"/>
<feBlend mode="normal" in="SourceGraphic" in2="effect1_dropShadow_3_807" result="shape"/>
</filter>
<clipPath id="clip0_3_807">
<rect x="16.0352" y="16.8369" width="210.061" height="133.508" rx="9.79874" fill="white"/>
</clipPath>
</defs>
</svg>
