<svg width="64" height="64" viewBox="0 0 64 64" fill="none" xmlns="http://www.w3.org/2000/svg">
  <path
    d="M31.7 58C20.2 58 11 49.1 11 38.1C11 28.7 16.4 21.8 22.2 16.1C25.9 12.5 28.2 8.7 28.8 4C37.2 8.8 41.7 15.5 42.3 23.9C45 22.4 47 20.1 48.2 17.2C51.4 22.1 53 27.4 53 33C53 47.2 43.6 58 31.7 58Z"
    fill="#28A263"
  />
  <path
    d="M30.8 51.3C25 51.3 20.4 46.8 20.4 41.2C20.4 36.4 23.1 32.9 26.1 30C28 28.1 29.1 26.2 29.4 23.8C33.7 26.2 36 29.7 36.3 33.9C37.7 33.2 38.7 32 39.3 30.5C40.9 33 41.7 35.7 41.7 38.6C41.7 45.8 36.9 51.3 30.8 51.3Z"
    fill="#141414"
    fill-opacity="0.18"
  />
</svg>
